<svg width="163" height="57" viewBox="0 0 163 57" fill="none" xmlns="http://www.w3.org/2000/svg">
<path opacity="0.3" d="M159.985 0.33488C158.542 2.21054 157.232 4.18386 156.063 6.24065C146.933 25.0198 131.128 36.3652 112.69 44.2431C106.042 46.8829 98.9186 48.1122 91.771 47.8526C72.0115 47.5493 52.6506 42.2572 35.4885 32.4682C30.3606 29.4522 25.7722 25.6021 21.9124 21.0766C23.7849 21.4475 25.6754 21.7346 27.5274 22.1735C32.9813 23.4596 38.3871 25.0284 43.9021 26.0134C46.4178 26.3114 48.9677 26.1127 51.407 25.4286C51.9551 25.1882 52.4335 24.8131 52.7977 24.3383C53.1618 23.8635 53.3999 23.3044 53.4898 22.7129C53.3955 22.138 53.1564 21.5965 52.795 21.1394C52.4337 20.6822 51.9619 20.3245 51.4241 20.0998C37.3341 18.2704 24.5033 12.4149 11.2535 7.87444C6.61932 6.28551 4.04867 7.39076 2.95925 11.8394C0.295839 23.0316 0.0997306 34.6685 2.38453 45.943C2.45214 46.3349 3.1259 46.5898 4.26365 47.4748C12.9753 42.3726 8.35436 32.9057 11.533 24.0941C12.6546 25.5813 13.8794 26.9878 15.1983 28.3033C39.0801 49.1654 67.3928 57.3364 98.5738 56.8624C103.418 56.6828 108.204 55.7372 112.753 54.0607C129.325 48.4678 143.81 37.9831 154.297 23.9913C157.732 19.38 159.77 13.6866 161.971 8.28758C162.82 6.18831 162.384 3.56834 162.538 1.1855L159.985 0.33488Z" fill="#56766B"/>
</svg>
