<svg width="20" height="22" viewBox="0 0 20 22" fill="none" xmlns="http://www.w3.org/2000/svg">
<ellipse cx="10" cy="11.0001" rx="10" ry="10.0001" fill="#E6E935"/>
<path d="M15.6682 6.84721C15.7986 6.99086 15.8686 7.18233 15.8629 7.37951C15.8571 7.57669 15.7761 7.76343 15.6376 7.89867L8.05157 15.3125C7.89692 15.4635 7.69143 15.5458 7.47904 15.5417C7.26666 15.5376 7.06424 15.4475 6.9151 15.2907L4.35135 12.5926C4.28346 12.5234 4.22952 12.4409 4.19267 12.3499C4.15582 12.2589 4.1368 12.1612 4.13672 12.0626C4.13664 11.9639 4.15549 11.8661 4.19219 11.7751C4.22888 11.684 4.28269 11.6014 4.35046 11.5321C4.41824 11.4629 4.49863 11.4082 4.58696 11.3715C4.67529 11.3347 4.76979 11.3165 4.86495 11.318C4.96012 11.3195 5.05405 11.3406 5.14128 11.3801C5.2285 11.4196 5.30728 11.4767 5.37302 11.5481L7.51012 13.7968L14.6542 6.81546C14.7927 6.68027 14.9774 6.60767 15.1675 6.61362C15.3577 6.61957 15.5378 6.70359 15.6682 6.84721Z" fill="black"/>
</svg>
